<?xml version="1.0"?>
<!DOCTYPE svg PUBLIC "-//W3C//DTD SVG 1.1//EN" "http://www.w3.org/Graphics/SVG/1.1/DTD/svg11.dtd">
<svg height="144px" style="shape-rendering:geometricPrecision; text-rendering:geometricPrecision; image-rendering:optimizeQuality; fill-rule:evenodd; clip-rule:evenodd" version="1.1" width="144px" xmlns="http://www.w3.org/2000/svg" xmlns:xlink="http://www.w3.org/1999/xlink">
	<g><path style="opacity:0.943" fill="#b01010" d="M 60.5,8.5 C 97.3487,5.65642 121.515,21.6564 133,56.5C 138.537,94.9441 123.037,120.444 86.5,133C 57.1596,138.238 33.9929,128.738 17,104.5C 1.3566,72.7213 6.52327,44.888 32.5,21C 41.0612,14.8817 50.3946,10.715 60.5,8.5 Z M 65.5,24.5 C 90.1376,23.6493 106.971,34.6493 116,57.5C 121.761,82.8094 113.261,101.643 90.5,114C 68.3372,122.251 49.5038,117.417 34,99.5C 20.5862,78.7342 21.5862,58.7342 37,39.5C 44.9711,31.4327 54.4711,26.4327 65.5,24.5 Z"/></g>
	<g><path style="opacity:0.91" fill="#b01010" d="M 63.5,39.5 C 68.8333,39.5 74.1667,39.5 79.5,39.5C 78.4298,52.8683 77.0965,66.2016 75.5,79.5C 72.5,79.5 69.5,79.5 66.5,79.5C 65.5,66.1667 64.5,52.8333 63.5,39.5 Z"/></g>
	<g><path style="opacity:0.884" fill="#b01010" d="M 68.5,86.5 C 78.3714,86.5705 81.5381,91.2372 78,100.5C 72.5394,104.796 67.8727,104.129 64,98.5C 62.4742,93.2389 63.9742,89.2389 68.5,86.5 Z"/></g>
</svg>