<svg fill="none" height="48" viewBox="0 0 48 48" width="48" xmlns="http://www.w3.org/2000/svg">
	<path d="M39.7219 7.0125L23.8313 25.5844L17.1188 18.8625C14.3906 16.1531 10.1531 20.4 12.8812 23.1094L21.8813 32.1188C22.425 32.6625 23.175 33 24 33C24.9094 33 25.725 32.5875 26.2781 31.95L44.2782 10.9125C46.7719 8.00625 42.2157 4.13438 39.7219 7.0125Z" fill="url(#paint0_linear_5195_2028633)" />
	<path d="M24 48C10.7625 48 0 37.2375 0 24C0 10.7625 10.7625 0 24 0C26.5594 0 29.0812 0.403125 31.4906 1.19062C35.3062 2.4375 33.3656 8.11875 29.625 6.89062C27.8156 6.3 25.9219 6 24 6C14.0719 6 6 14.0719 6 24C6 33.9281 14.0719 42 24 42C33.9281 42 42 33.9281 42 24C42 23.3156 41.9625 22.65 41.8875 21.9938C41.6531 17.925 47.3625 17.5125 47.85 21.3375C47.9437 22.2094 48 23.1 48 24.0094C48 37.2375 37.2375 48 24 48Z" fill="url(#paint1_linear_5195_2028633)" />
	<defs>
		<linearGradient gradientUnits="userSpaceOnUse" id="paint0_linear_5195_2028633" x1="0" x2="48" y1="24" y2="24">
			<stop stop-color="#37BAC6" />
			<stop offset="1" stop-color="#17658B" />
		</linearGradient>
		<linearGradient gradientUnits="userSpaceOnUse" id="paint1_linear_5195_2028633" x1="0" x2="48" y1="24" y2="24">
			<stop stop-color="#37BAC6" />
			<stop offset="1" stop-color="#17658B" />
		</linearGradient>
	</defs>
</svg>